 <svg version="1.0" xmlns="http://www.w3.org/2000/svg" width="700.000000pt" height="700.000000pt" viewBox="0 0 700.000000 700.000000" preserveAspectRatio="xMidYMid meet">
<metadata>
Created by potrace 1.12, written by Peter Selinger 2001-2015
</metadata>
<g transform="translate(0.000000,700.000000) scale(0.100000,-0.100000)" fill="#000000" stroke="none">
<path d="M3327 4474 c-4 -4 -7 -47 -7 -96 0 -83 -1 -89 -24 -99 -17 -8 -29 -8
-44 0 -32 17 -122 13 -162 -7 -59 -29 -80 -85 -80 -212 0 -100 2 -109 29 -153
24 -37 38 -48 72 -57 48 -13 123 -6 156 16 29 18 43 18 58 -3 7 -10 19 -14 29
-10 15 6 16 35 14 314 -3 269 -5 308 -18 311 -9 1 -19 0 -23 -4z m-27 -244
c19 -10 20 -21 20 -153 l0 -143 -32 -24 c-46 -34 -146 -35 -182 -1 -37 34 -52
116 -39 209 11 74 28 106 68 123 25 11 138 4 165 -11z"></path>
<path d="M2037 4455 c-16 -15 -17 -44 -15 -308 3 -284 4 -292 23 -292 19 0 20
8 23 115 2 76 7 117 15 122 14 9 129 11 152 2 14 -6 85 -141 116 -221 6 -16
17 -23 34 -23 14 0 25 4 25 9 0 8 -46 107 -87 186 -20 39 -14 66 16 81 13 7
34 25 47 41 20 24 23 39 24 113 0 150 -35 176 -256 187 -86 5 -103 3 -117 -12z
m281 -65 c39 -32 51 -101 31 -173 -14 -53 -66 -76 -168 -77 -107 0 -111 5
-111 146 0 80 4 114 13 117 6 3 57 6 112 6 84 0 104 -3 123 -19z"></path>
<path d="M3876 4457 c-12 -9 -17 -23 -14 -42 2 -24 8 -30 28 -30 21 0 26 5 28
31 4 39 -17 59 -42 41z"></path>
<path d="M2665 4292 c-64 -12 -103 -35 -125 -74 -20 -36 -23 -55 -23 -153 -1
-99 2 -115 22 -149 13 -20 33 -43 45 -51 30 -19 107 -28 170 -21 100 13 139
75 139 221 0 115 -23 175 -80 203 -38 19 -111 31 -148 24z m97 -52 c51 -15 78
-71 78 -166 0 -135 -32 -184 -122 -191 -100 -8 -155 53 -157 175 -1 52 24 146
44 162 33 27 99 36 157 20z"></path>
<path d="M3660 4273 c-19 -8 -39 -21 -43 -29 -13 -22 -43 -16 -56 12 -7 16
-18 24 -29 22 -15 -3 -17 -22 -17 -213 l0 -210 25 0 25 0 2 140 c2 77 5 150 8
162 8 32 77 73 136 80 54 6 67 16 49 38 -16 19 -55 18 -100 -2z"></path>
<path d="M3872 4278 c-14 -14 -17 -395 -3 -416 5 -8 17 -12 27 -10 18 3 19 17
22 198 1 107 0 205 -3 218 -6 24 -24 29 -43 10z"></path>
<path d="M4150 4278 c-19 -5 -47 -21 -62 -36 -25 -23 -28 -33 -28 -88 0 -51 5
-70 25 -100 31 -45 31 -57 3 -69 -30 -13 -37 -69 -12 -96 17 -19 16 -21 -14
-52 -28 -29 -32 -39 -32 -90 0 -55 1 -57 41 -84 39 -25 47 -27 167 -27 124 0
141 3 185 37 23 19 37 99 26 143 -17 61 -47 74 -168 74 -132 0 -178 17 -173
65 2 16 5 31 6 32 1 2 42 5 92 8 120 8 128 11 169 46 32 28 35 36 35 86 0 33
-7 66 -16 83 -20 33 -13 60 15 60 11 0 23 5 26 10 8 13 -238 12 -285 -2z m187
-65 c50 -61 31 -139 -39 -168 -126 -50 -243 50 -181 156 10 17 29 32 43 35 14
3 30 8 35 10 6 2 35 1 65 -1 44 -4 59 -10 77 -32z m50 -388 c32 -36 29 -78 -6
-117 l-29 -33 -112 0 c-110 0 -112 0 -136 28 -30 35 -31 85 -4 120 25 32 49
36 170 32 88 -3 97 -6 117 -30z"></path>
<path d="M4630 4274 c-48 -20 -69 -53 -81 -127 -21 -125 7 -245 65 -282 31
-19 99 -28 166 -20 102 12 140 71 140 220 0 84 -17 153 -44 181 -44 43 -175
58 -246 28z m160 -34 c47 -13 71 -55 78 -135 7 -90 -4 -146 -36 -185 -24 -28
-36 -34 -83 -37 -80 -6 -119 18 -142 88 -22 66 -18 159 9 216 27 55 94 75 174
53z"></path>
<path d="M2938 3333 l-3 -98 -35 3 c-19 1 -60 5 -91 8 -74 7 -130 -19 -159
-76 -17 -32 -20 -59 -20 -153 0 -111 1 -115 30 -155 38 -53 56 -62 127 -62 41
0 67 6 88 20 37 25 40 25 64 -2 17 -17 23 -19 36 -8 13 11 15 52 13 314 l-3
301 -22 3 c-22 3 -22 0 -25 -95z m-38 -141 l35 -17 3 -130 c1 -72 0 -139 -3
-150 -7 -28 -72 -55 -131 -55 -41 0 -55 5 -81 29 -27 24 -32 37 -38 95 -8 71
0 157 16 188 29 54 129 74 199 40z"></path>
<path d="M1647 3413 c-12 -11 -8 -601 3 -608 6 -4 17 -1 25 5 12 10 15 38 15
121 0 108 0 110 26 119 14 6 43 10 64 10 73 0 84 -10 144 -133 31 -63 64 -118
73 -121 38 -15 34 15 -16 116 -28 57 -51 113 -51 125 0 15 10 28 30 38 51 26
70 69 70 155 0 144 -49 179 -251 180 -69 0 -129 -3 -132 -7z m248 -53 c60 -14
75 -39 75 -124 0 -85 -14 -111 -68 -126 -48 -13 -168 -13 -193 0 -17 10 -19
22 -19 125 0 98 2 115 18 124 21 13 134 14 187 1z"></path>
<path d="M3484 3406 c-11 -29 1 -61 24 -64 26 -4 37 17 28 53 -7 28 -43 35
-52 11z"></path>
<path d="M2220 3231 c-19 -11 -46 -34 -59 -52 -22 -30 -24 -42 -25 -149 -1
-132 11 -169 68 -208 27 -18 46 -22 115 -22 148 0 191 52 191 228 0 115 -21
163 -85 199 -52 29 -153 31 -205 4z m162 -36 c58 -24 68 -49 68 -176 l0 -111
-34 -34 c-32 -32 -39 -34 -98 -34 -57 0 -67 3 -90 28 -31 32 -53 126 -44 186
13 93 25 117 69 137 51 22 83 24 129 4z"></path>
<path d="M3279 3230 c-19 -10 -41 -26 -48 -34 -21 -25 -41 -19 -53 15 -7 20
-15 28 -25 25 -8 -3 -17 -6 -19 -6 -2 0 -4 -94 -4 -209 0 -182 2 -210 16 -215
9 -3 20 -4 25 0 5 3 9 68 9 146 0 112 3 145 17 168 21 36 89 70 142 70 45 0
63 19 41 45 -17 20 -57 18 -101 -5z"></path>
<path d="M3770 3234 c-25 -9 -56 -27 -70 -40 -22 -21 -25 -33 -24 -89 0 -52 5
-69 22 -88 28 -30 29 -73 2 -80 -25 -7 -28 -66 -4 -102 15 -23 15 -25 0 -31
-24 -9 -56 -68 -56 -103 0 -22 10 -43 34 -69 l34 -37 144 0 c135 0 145 1 175
24 44 33 62 98 42 155 -22 63 -74 85 -207 86 -121 0 -147 9 -137 48 9 37 20
42 105 42 146 2 207 50 196 159 -3 30 -10 59 -15 64 -20 20 -12 46 14 49 14 2
25 8 25 13 0 18 -228 17 -280 -1z m143 -39 c47 -19 67 -50 67 -100 -1 -64 -26
-88 -99 -93 -120 -9 -161 17 -161 100 0 80 104 130 193 93z m84 -409 c23 -20
28 -32 27 -66 -1 -34 -7 -47 -30 -66 -26 -21 -39 -23 -135 -24 -99 0 -108 2
-133 25 -43 40 -33 125 17 145 12 5 68 9 124 9 94 1 104 -1 130 -23z"></path>
<path d="M4185 3234 c-12 -13 -15 -45 -15 -171 0 -169 9 -205 58 -243 36 -29
139 -28 192 2 36 21 39 22 57 5 11 -9 29 -17 41 -17 l22 0 -2 212 c-3 199 -4
213 -22 216 -10 2 -22 -2 -27 -10 -5 -7 -9 -85 -9 -173 0 -88 -4 -164 -8 -170
-11 -15 -72 -37 -118 -42 -46 -5 -97 16 -114 46 -6 11 -10 91 -10 184 0 136
-3 166 -15 171 -8 3 -21 -2 -30 -10z"></path>
<path d="M4743 3228 c-54 -27 -74 -74 -81 -185 -6 -110 16 -184 67 -219 32
-22 46 -24 148 -24 68 0 114 4 118 11 12 18 -4 23 -58 21 -29 -2 -74 0 -102 4
-87 11 -140 89 -105 155 10 17 22 19 119 19 131 0 150 10 158 82 12 105 -42
159 -158 157 -44 0 -77 -7 -106 -21z m189 -47 c27 -24 33 -36 33 -70 0 -22 -6
-46 -13 -53 -15 -15 -189 -28 -214 -16 -21 10 -25 76 -7 109 18 34 70 59 121
59 38 0 54 -6 80 -29z"></path>
<path d="M5185 3234 c-50 -27 -65 -53 -65 -114 0 -91 40 -119 171 -120 45 0
61 -5 83 -25 32 -29 35 -82 7 -116 -17 -21 -28 -24 -127 -27 -60 -2 -116 -5
-124 -8 -31 -11 14 -23 90 -24 157 -3 159 -3 196 34 29 29 34 41 34 83 0 39
-6 56 -29 83 -28 34 -30 35 -126 41 -113 7 -125 16 -125 86 0 63 36 83 147 83
75 0 106 10 88 28 -4 4 -48 8 -98 10 -70 2 -99 -2 -122 -14z"></path>
<path d="M3497 3233 c-12 -11 -8 -421 3 -428 6 -4 17 -1 25 5 12 10 15 48 15
199 0 102 -3 196 -6 209 -6 21 -24 29 -37 15z"></path>
</g>
</svg>